PathFileType	3	(X/Y/Z)	D:\Vicon Database\Healthy Subjects\S0040\Jan. 30, 2020\Force Plate Walk 7.trc
DataRate	CameraRate	NumFrames	NumMarkers	Units	OrigDataRate	OrigDataStartFrame	OrigNumFrames
100.0	100.0	6	53	mm	100.0	234	319	
Frame#	Time	sternum_cluster1			sternum_cluster2			sternum_cluster3			left_asis			right_asis			left_psis			right_psis			sacrum_cluster1			sacrum_cluster2			sacrum_cluster3			left_lat_femoral_epicondyle			left_anterior_thigh15			left_anterior_thigh25			left_anterior_thigh50			left_lateral_thigh25			left_lateral_thigh50			left_thigh_cluster1			left_thigh_cluster2			left_thigh_cluster3			left_fibular_head			left_tibial_tuberosity			left_anterior_shank30			left_lateral_malleolus			left_shank_cluster1			left_shank_cluster2			left_shank_cluster3			left_heel			left_metatarsal2			left_foot_cluster1			left_foot_cluster2			left_foot_cluster3			right_lat_femoral_epicondyle			right_anterior_thigh15			right_anterior_thigh25			right_anterior_thigh50			right_lateral_thigh25			right_lateral_thigh50			right_thigh_cluster1			right_thigh_cluster2			right_thigh_cluster3			right_fibular_head			right_tibial_tuberosity			right_lateral_distal_shank			right_anterior_shank30			right_lateral_malleolus			right_shank_cluster1			right_shank_cluster2			right_shank_cluster3			right_heel			right_metatarsal2			right_foot_cluster1			right_foot_cluster2			right_foot_cluster3			
		X1	Y1	Z1	X2	Y2	Z2	X3	Y3	Z3	X4	Y4	Z4	X5	Y5	Z5	X6	Y6	Z6	X7	Y7	Z7	X8	Y8	Z8	X9	Y9	Z9	X10	Y10	Z10	X11	Y11	Z11	X12	Y12	Z12	X13	Y13	Z13	X14	Y14	Z14	X15	Y15	Z15	X16	Y16	Z16	X17	Y17	Z17	X18	Y18	Z18	X19	Y19	Z19	X20	Y20	Z20	X21	Y21	Z21	X22	Y22	Z22	X23	Y23	Z23	X24	Y24	Z24	X25	Y25	Z25	X26	Y26	Z26	X27	Y27	Z27	X28	Y28	Z28	X29	Y29	Z29	X30	Y30	Z30	X31	Y31	Z31	X32	Y32	Z32	X33	Y33	Z33	X34	Y34	Z34	X35	Y35	Z35	X36	Y36	Z36	X37	Y37	Z37	X38	Y38	Z38	X39	Y39	Z39	X40	Y40	Z40	X41	Y41	Z41	X42	Y42	Z42	X43	Y43	Z43	X44	Y44	Z44	X45	Y45	Z45	X46	Y46	Z46	X47	Y47	Z47	X48	Y48	Z48	X49	Y49	Z49	X50	Y50	Z50	X51	Y51	Z51	X52	Y52	Z52	X53	Y53	Z53	
234	2.33	3654.1345	1447.6686	-130.44197	3643.6208	1419.5692	-121.67629	3644.8711	1421.0276	-159.95253	3689.75	1068.3929	-11.704244	3689.645	1080.8424	-259.68829																3659.6431	547.06262	16.814703	3572.4753	630.76923	-30.352154	3579.0681	721.56885	-20.615065	3619.7209	856.83215	-10.590523	3689.4063	689.40466	33.136684	3716.3262	835.20459	55.449696	3708.8198	790.40485	61.2901	3705.5989	759.79999	58.666481	3671.9067	776.37531	63.798107	3677.5156	481.40576	28.896931	3635.5898	442.57022	-25.299841	3828.2202	273.58701	-28.050974	3944.123	222.13219	6.1277051	3675.928	397.48697	-51.885178	3691.9709	375.5871	-41.427963	3702.1338	383.38898	-78.274704	4020.0645	249.04951	-35.170322	3863.5391	96.223602	-26.367031	3869.4551	172.67374	-17.698914	3868.1018	141.72733	-7.9870291	3857.374	144.95132	-45.539703	3731.866	532.57507	-266.48233	3649.7981	623.19073	-212.65691	3637.7551	702.99866	-214.85828	3641.3557	832.65991	-226.32962	3736.9534	691.65961	-294.48187	3742.7815	840.14307	-321.04785	3750.2378	786.40735	-327.02661	3728.8525	765.04779	-320.81854	3775.8738	758.89221	-319.01184	3746.8691	465.06125	-267.52277	3694.3191	452.06375	-221.50835	3802.1179	202.28247	-244.36098	3756.6218	210.00888	-196.96973	3823.1436	101.96368	-225.33533	3716.9839	389.70871	-163.69113	3727.468	363.59909	-156.08884	3703.3909	357.55463	-183.43279	3899.5881	67.414787	-190.23404	3680.1011	72.023247	-186.46666	3737.5454	118.20465	-183.7244	3713.3179	104.90936	-174.88593	3713.1646	109.05626	-212.18655
235	2.34	3643.5203	1448.8727	-130.91011	3633.0623	1420.3092	-122.03034	3633.7996	1422.6082	-160.26007	3679.9985	1069.8663	-12.038439	3678.8296	1081.1648	-259.67389																3639.4587	550.72223	15.861932	3554.2551	637.00262	-30.833908	3563.2954	727.6499	-20.927607	3607.4224	861.65381	-10.716894	3673.1797	692.43298	32.977543	3703.7668	837.76605	55.435051	3694.3318	793.22913	61.897472	3691.4333	763.57794	59.347412	3657.7297	779.77856	63.409916	3656.322	484.6499	27.258198	3610.7727	447.41049	-25.867327	3798.304	270.63388	-29.392996	3912.407	215.28662	3.8893671	3650.45	400.32431	-52.630058	3665.8096	377.94904	-42.724968	3675.8311	384.9689	-79.203735	3990	236.74286	-37.795826	3825.219	93.925636	-27.791182	3835.4485	169.80391	-19.684933	3831.54	139.92378	-9.9460506	3821.2422	143.17307	-47.641933	3730.3879	532.77673	-266.02924	3647.2644	622.04431	-212.51254	3632.7258	702.39795	-214.43445	3633.7559	831.46716	-226.47847	3732.3225	692.71454	-294.64923	3734.834	840.60577	-321.05713	3743.688	787.08929	-326.85953	3723.5369	765.14532	-321.07321	3769.2979	760.3056	-319.04623	3746.3896	465.83774	-267.77176	3693.4907	452.27481	-221.36661	3801.7842	202.7626	-244.27173	3756.2698	210.40179	-196.9072	3823.0486	102.19753	-225.30807	3717.1213	390.6496	-163.3024	3726.7322	363.86755	-156.08237	3702.7449	357.88913	-183.31067	3899.5383	67.647621	-190.26312	3679.8696	71.830139	-186.20464	3737.4231	118.26219	-183.6812	3713.189	104.77074	-174.77493	3712.9978	108.97127	-212.18811
236	2.35	3632.6692	1450.4159	-130.82185	3622.3159	1421.3398	-122.406	3623.0295	1423.7144	-160.52008	3670.26	1071.1431	-12.277892	3668.1362	1081.5682	-260.13882																3620.1318	554.33569	14.896125	3536.5657	643.0387	-31.362959	3548.0183	733.55408	-21.032999	3595.4841	866.09686	-10.75944	3657.0166	695.8277	32.645493	3691.5425	840.36359	55.539223	3681.363	795.42267	61.548431	3677.395	766.71924	59.581173	3643.9983	783.47186	63.429489	3635.6843	487.95935	25.778215	3587.7903	451.8623	-27.126562	3767.7971	267.75165	-30.617691	3879.7781	207.21928	1.8275063	3625.2222	403.23688	-53.154324	3639.7056	379.93961	-43.144897	3649.5288	386.62241	-80.13131	3958.6455	223.71719	-40.304649	3783.4885	92.571808	-28.878	3800.8892	166.98099	-21.679317	3794.6379	138.06903	-11.92404	3784.4761	141.34921	-49.18779	3728.6699	533.25812	-265.74487	3644.031	621.20758	-212.28604	3628.1465	700.38123	-214.46536	3626.0979	830.48047	-226.32587	3727.1545	693.45538	-294.5444	3726.9844	841.21838	-321.02786	3736.6348	787.52716	-327.04736	3723.4434	762.53613	-323.41727	3762.9758	761.61945	-319.14682	3745.6563	466.55042	-267.63388	3692.7126	452.59311	-221.21428	3801.3909	203.116	-244.15955	3755.8452	210.92119	-196.88245	3822.9089	102.45373	-225.57913	3715.5886	390.45032	-163.50589	3726.0754	364.27649	-156.00931	3701.8628	358.31686	-183.33395	3899.4819	68.006653	-190.27504	3679.5635	71.709274	-186.19684	3737.2266	118.45447	-183.79192	3713.0535	104.82155	-174.91806	3712.8564	108.93908	-212.24078
237	2.36	3621.8271	1450.8578	-131.63965	3611.634	1422.5437	-122.5414	3612.1812	1424.7201	-160.73785	3660.3745	1072.2307	-12.699326	3657.4421	1081.8961	-260.05148																3601.3645	558.05737	13.440734	3519.4331	649.03632	-31.852749	3533.0603	739.09833	-21.026424	3583.6943	870.26752	-10.726569	3641.1462	699.3598	32.614044	3679.4502	842.80121	55.749176	3667.9136	797.8302	61.711323	3662.7932	767.88647	58.66563	3630.0413	786.31836	63.419289	3615.416	491.14764	24.278019	3566.1682	455.61411	-28.156666	3736.877	264.7356	-31.740305	3846.7231	199.45059	-0.16911057	3600.2693	405.94089	-53.705803	3614.0659	381.99579	-43.696762	3623.6008	387.92007	-80.575493	3926.0151	210.24207	-42.707195	3743.197	90.785118	-29.895266	3765.4385	163.7086	-23.389919	3756.7002	135.37486	-13.572992	3747.1555	138.99268	-50.477676	3727.3335	533.88287	-265.28387	3640.8831	620.1416	-212.08875	3623.3801	699.33832	-213.97148	3618.3293	829.3775	-226.53098	3722.4045	694.22864	-293.2515	3718.9631	841.47565	-320.88773	3730.0889	787.88428	-327.25595	3717.876	762.7146	-322.04791	3756.502	762.64905	-319.11606	3744.5986	466.98166	-266.82272	3692.052	452.94815	-221.2014	3800.7561	203.30182	-244.12128	3756.7456	210.86818	-196.87239	3822.689	102.7981	-225.50667	3714.8018	390.96255	-163.46497	3725.0991	364.50101	-156.14612	3701.1467	358.75473	-183.38654	3899.3679	68.450645	-190.17645	3679.6221	71.704903	-186.27019	3736.9404	118.47991	-183.71866	3712.6604	104.91916	-174.96643	3712.5544	108.98912	-212.30965
238	2.37	3610.9988	1451.8701	-131.60069	3600.8811	1423.4034	-122.58229	3601.1316	1425.5745	-160.75882	3650.3042	1073.3809	-13.029672	3647.5537	1080.9233	-260.54315																3583.241	561.14349	12.195185	3502.5962	654.90552	-32.02586	3518.2847	744.57605	-20.822838	3572.1599	873.86792	-10.642117	3625.8079	702.06403	32.795341	3668.925	844.4411	55.685055	3653.9812	800.70306	62.870174	3648.8779	769.99231	59.256397	3616.5264	789.34485	63.656322	3595.6289	493.93234	22.960386	3543.4597	460.34387	-28.363129	3706.2952	261.08618	-32.764599	3812.2129	190.99315	-2.1583681	3575.7473	408.73407	-54.130486	3588.0952	384.56473	-44.096989	3597.7529	389.45944	-81.236771	3892.2288	196.71947	-44.964283	3702.3591	88.79892	-30.921848	3728.4583	160.11244	-24.821205	3718.6724	132.63895	-14.896704	3708.8284	136.6561	-51.776081	3726.0559	534.50092	-265.10712	3637.7214	619.26703	-211.81693	3618.501	697.99939	-213.52267	3610.7202	827.95953	-226.25902	3717.5063	694.737	-292.95477	3710.989	841.65558	-320.95166	3723.4285	788.40936	-327.03836	3711.4175	762.91602	-321.93079	3750.1162	763.56079	-319.15707	3744.3625	467.68787	-267.20926	3691.2	453.31708	-221.095	3800.4753	203.72215	-243.76833	3755.2815	211.67336	-196.9167	3822.4915	103.133	-225.39743	3714.1418	391.30008	-163.24347	3724.3372	365.02054	-156.06708	3700.6724	359.05106	-183.34552	3899.8418	69.424484	-189.9283	3679.5061	71.514938	-186.27002	3736.7847	118.06249	-184.08969	3712.6172	104.77165	-174.91235	3712.3767	108.9489	-212.23592
239	2.38	3600.022	1452.1462	-131.74731	3589.916	1423.7284	-122.77517	3589.8762	1426.1312	-160.59827	3640.2444	1074.004	-13.580002	3636.5059	1080.9053	-261.14749																3565.7056	564.20782	11.45869	3486.9861	659.82513	-32.261589	3504.1555	749.42004	-20.548044	3560.552	877.58154	-10.576655	3610.6465	705.05096	33.222599	3655.4473	847.13763	56.303261	3641.4001	802.51843	62.952293	3635.6868	773.43115	60.410675	3603.396	792.54144	64.339317	3576.2451	496.07803	22.035215	3521.6511	465.04364	-28.575262	3674.9136	257.54056	-33.844284	3777.0044	182.02223	-3.8791788	3550.8577	411.65753	-54.805035	3562.606	386.39969	-44.440189	3572.2585	391.12772	-81.881187	3857.1868	182.64539	-46.869488	3661.0532	87.059097	-31.761267	3692.0671	156.44243	-26.284971	3680.1707	129.78412	-16.118284	3670.3745	134.0184	-52.985596	3724.6372	534.80841	-264.82742	3634.7268	618.32086	-211.29042	3613.4961	696.69659	-212.89351	3602.8716	826.92957	-226.14571	3712.2439	694.76581	-292.41632	3703.2083	841.68286	-320.89197	3717.1003	788.68707	-326.76556	3704.0408	763.03241	-322.55515	3743.5513	764.08673	-319.25034	3743.7356	468.20374	-266.94705	3689.9314	453.77939	-220.76448	3800.6506	204.356	-243.12552	3754.7212	212.15109	-196.73482	3822.2854	103.41465	-225.21526	3713.3555	391.62762	-163.02818	3723.5264	365.38705	-155.65457	3699.7751	359.38507	-183.33508	3899.251	69.258568	-189.99779	3679.2769	71.413673	-186.20711	3736.571	118.11838	-183.77534	3712.3354	104.74855	-174.85185	3712.4939	108.9808	-212.33162
